<svg viewBox = "0 0 88 88" width="88" height="88" xmlns="http://www.w3.org/2000/svg"><g transform="matrix(1 0 0 1 44 44)"  ><g style=""   ><g transform="matrix(1 0 0 1 0.65 6.73)"  ><path style="stroke: none; stroke-width: 1; stroke-dasharray: none; stroke-linecap: butt; stroke-dashoffset: 0; stroke-linejoin: miter; stroke-miterlimit: 4; fill: rgb(255,255,255); fill-rule: evenodd; opacity: 1;"  transform=" translate(-44.65, -50.73)" d="M 48.2447 41.3499 C 47.5328 42.773 47.0988 44.9899 47.6608 48.2582 C 47.9369 49.8641 46.8625 51.3905 45.2611 51.6674 C 43.6596 51.9443 42.1375 50.8669 41.8613 49.261 C 41.1389 45.06 41.5825 41.5063 42.9843 38.7039 C 44.3948 35.8843 46.6763 34.0347 49.2016 33.1454 C 53.9849 31.461 60.2672 33.2386 62.1136 38.8756 C 64.0704 44.8499 63.5746 52.3626 60.6822 58.3549 C 57.7305 64.4699 52.0592 69.3388 43.745 68.8856 C 35.5982 68.4414 30.2026 63.4717 27.6961 57.3496 C 25.2423 51.3563 25.4593 44.0867 28.4608 38.4135 C 29.2225 36.974 31.0037 36.4261 32.4393 37.1898 C 33.8749 37.9536 34.4212 39.7397 33.6596 41.1793 C 31.5237 45.2162 31.3126 50.6445 33.1402 55.1084 C 34.9151 59.4435 38.5104 62.6901 44.0644 62.9929 C 49.451 63.2866 53.1989 60.3127 55.385 55.7838 C 57.6303 51.1322 57.9907 45.2 56.5224 40.7171 C 55.9698 39.03 53.6892 37.8198 51.1516 38.7134 C 50.0164 39.1131 48.948 39.9439 48.2447 41.3499 Z" stroke-linecap="round" /></g><g transform="matrix(1 0 0 1 13.4 3.77)"  ><path style="stroke: none; stroke-width: 1; stroke-dasharray: none; stroke-linecap: butt; stroke-dashoffset: 0; stroke-linejoin: miter; stroke-miterlimit: 4; fill: rgb(255,255,255); fill-rule: evenodd; opacity: 1;"  transform=" translate(-57.4, -47.77)" d="M 55.7704 23.6772 C 50.4769 23.544 45.1955 25.5943 41.8628 29.0487 C 40.7329 30.2199 38.87 30.2509 37.702 29.1178 C 36.534 27.9847 36.5032 26.1167 37.6331 24.9455 C 42.2296 20.1811 49.1591 17.6076 55.918 17.7777 C 62.7424 17.9494 69.6829 20.9385 73.9467 27.654 C 77.552 33.3324 78.8379 42.9204 77.4583 52.183 C 76.0669 61.525 71.8414 71.3801 63.4551 77.2372 C 62.1215 78.1685 60.2875 77.8395 59.3588 76.5023 C 58.43 75.1651 58.7581 73.326 60.0916 72.3946 C 66.6826 67.7915 70.3862 59.7145 71.6378 51.3113 C 72.9013 42.8286 71.5442 34.8582 68.9824 30.8234 C 65.9516 26.0498 60.9983 23.8087 55.7704 23.6772 Z" stroke-linecap="round" /></g><g transform="matrix(1 0 0 1 -13.23 2.21)"  ><path style="stroke: none; stroke-width: 1; stroke-dasharray: none; stroke-linecap: butt; stroke-dashoffset: 0; stroke-linejoin: miter; stroke-miterlimit: 4; fill: rgb(255,255,255); fill-rule: evenodd; opacity: 1;"  transform=" translate(-30.77, -46.21)" d="M 41.9234 10.1273 C 42.6115 11.6036 41.9759 13.3597 40.5036 14.0498 C 29.7691 19.0809 23.2967 25.9613 19.9154 33.2101 C 16.5229 40.4827 16.1453 48.3313 17.9555 55.442 C 21.6434 69.9284 33.888 80.29 47.0227 77.6784 C 48.6168 77.3614 50.1653 78.4003 50.4814 79.9988 C 50.7974 81.5973 49.7614 83.1501 48.1673 83.467 C 30.8956 86.9013 16.4122 73.238 12.2533 56.9016 C 10.1401 48.6009 10.5595 39.3385 14.5847 30.7097 C 18.6209 22.057 26.1869 14.2457 38.0117 8.70356 C 39.484 8.01354 41.2353 8.65096 41.9234 10.1273 Z" stroke-linecap="round" /></g><g transform="matrix(1 0 0 1 7.03 -36.56)"  ><path style="stroke: none; stroke-width: 1; stroke-dasharray: none; stroke-linecap: butt; stroke-dashoffset: 0; stroke-linejoin: miter; stroke-miterlimit: 4; fill: rgb(255,255,255); fill-rule: nonzero; opacity: 1;"  transform=" translate(-51.03, -7.44)" d="M 54.4606 7.44244 C 54.4606 9.34365 52.9237 10.8849 51.0277 10.8849 C 49.1317 10.8849 47.5947 9.34365 47.5947 7.44244 C 47.5947 5.54123 49.1317 4 51.0277 4 C 52.9237 4 54.4606 5.54123 54.4606 7.44244 Z" stroke-linecap="round" /></g><g transform="matrix(1 0 0 1 19.29 -36.07)"  ><path style="stroke: none; stroke-width: 1; stroke-dasharray: none; stroke-linecap: butt; stroke-dashoffset: 0; stroke-linejoin: miter; stroke-miterlimit: 4; fill: rgb(255,255,255); fill-rule: nonzero; opacity: 1;"  transform=" translate(-63.29, -7.93)" d="M 67.2115 7.93422 C 67.2115 10.107 65.4549 11.8684 63.2881 11.8684 C 61.1213 11.8684 59.3647 10.107 59.3647 7.93422 C 59.3647 5.76141 61.1213 4 63.2881 4 C 65.4549 4 67.2115 5.76141 67.2115 7.93422 Z" stroke-linecap="round" /></g></g></g></svg>